<svg width="163" height="398" version="1.1" viewBox="0 0 163 398" xmlns="http://www.w3.org/2000/svg" xmlns:xlink="http://www.w3.org/1999/xlink">
 <title>PET bottle</title>
 <defs>
  <linearGradient id="linearGradient4836">
   <stop stop-color="#fff" offset="0"/>
   <stop stop-color="#fff" stop-opacity="0" offset="1"/>
  </linearGradient>
  <linearGradient id="linearGradient4782">
   <stop stop-color="#fff" offset="0"/>
   <stop stop-color="#e0e6e9" offset="1"/>
  </linearGradient>
  <linearGradient id="linearGradient4706">
   <stop stop-color="#0083d7" offset="0"/>
   <stop stop-color="#0083d7" stop-opacity="0" offset="1"/>
  </linearGradient>
  <linearGradient id="linearGradient4694" x1="245" x2="862" y1="297" y2="297" gradientTransform="matrix(.25 0 0 .25 106 215)" gradientUnits="userSpaceOnUse">
   <stop stop-color="#fff" offset="0"/>
   <stop stop-color="#09f" offset="1"/>
  </linearGradient>
  <radialGradient id="radialGradient4700" cx="-631" cy="276" r="251" gradientTransform="matrix(.3 .0037 -.0059 .48 373 186)" gradientUnits="userSpaceOnUse" xlink:href="#linearGradient4782"/>
  <radialGradient id="radialGradient4702" cx="-651" cy="935" r="250" gradientTransform="matrix(.26 1e-8 0 .18 357 280)" gradientUnits="userSpaceOnUse">
   <stop stop-color="#3e9ade" offset="0"/>
   <stop stop-color="#3e9ade" stop-opacity="0" offset="1"/>
  </radialGradient>
  <radialGradient id="radialGradient4712" cx="-640" cy="-3.4" r="251" gradientTransform="matrix(.0052 .32 -.73 .012 189 310)" gradientUnits="userSpaceOnUse" xlink:href="#linearGradient4706"/>
  <filter id="filter4746" x="-.074" y="-3.1" width="1.1" height="7.1" color-interpolation-filters="sRGB">
   <feGaussianBlur stdDeviation="12.777724"/>
  </filter>
  <filter id="filter4750" x="-.072" y="-3" width="1.1" height="7" color-interpolation-filters="sRGB">
   <feGaussianBlur stdDeviation="12.777724"/>
  </filter>
  <filter id="filter4754" x="-.19" y="-.094" width="1.4" color-interpolation-filters="sRGB">
   <feGaussianBlur stdDeviation="12.777724"/>
  </filter>
  <filter id="filter4758" x="-.16" y="-.097" width="1.3" color-interpolation-filters="sRGB">
   <feGaussianBlur stdDeviation="12.777724"/>
  </filter>
  <filter id="filter4762" x="-.16" y="-.099" width="1.3" color-interpolation-filters="sRGB">
   <feGaussianBlur stdDeviation="12.777724"/>
  </filter>
  <filter id="filter4800" x="-.042" y="-.36" width="1.1" height="1.7" color-interpolation-filters="sRGB">
   <feGaussianBlur stdDeviation="2.513612"/>
  </filter>
  <filter id="filter4804" x="-.039" y="-.28" width="1.1" height="1.6" color-interpolation-filters="sRGB">
   <feGaussianBlur stdDeviation="2.513612"/>
  </filter>
  <filter id="filter4808" x="-.033" y="-.59" width="1.1" height="2.2" color-interpolation-filters="sRGB">
   <feGaussianBlur stdDeviation="2.513612"/>
  </filter>
  <filter id="filter4832" x="-.17" y="-.18" width="1.3" height="1.4" color-interpolation-filters="sRGB">
   <feGaussianBlur stdDeviation="14.007771"/>
  </filter>
  <filter id="filter4860" x="-2.7" y="-.054" width="6.4" height="1.1" color-interpolation-filters="sRGB">
   <feGaussianBlur stdDeviation="11.231495"/>
  </filter>
  <filter id="filter4864" x="-2.7" y="-.059" width="6.3" height="1.1" color-interpolation-filters="sRGB">
   <feGaussianBlur stdDeviation="11.231495"/>
  </filter>
  <linearGradient id="linearGradient4896" x1="-609" x2="-558" y1="-41" y2="113" gradientUnits="userSpaceOnUse" xlink:href="#linearGradient4836"/>
  <radialGradient id="radialGradient5165" cx="111" cy="305" r="63" gradientTransform="matrix(.058 -.8 2.9 .21 -710 476)" gradientUnits="userSpaceOnUse">
   <stop stop-color="#3e9ade" offset="0"/>
   <stop stop-color="#3e9ade" stop-opacity="0" offset="1"/>
  </radialGradient>
  <filter id="filter5171" x="-1.2" y="-.024" width="3.4" height="1" color-interpolation-filters="sRGB">
   <feGaussianBlur stdDeviation="4.9971786"/>
  </filter>
  <filter id="filter5175" x="-.73" y="-.016" width="2.5" height="1" color-interpolation-filters="sRGB">
   <feGaussianBlur stdDeviation="3.1081843"/>
  </filter>
  <filter id="filter5201" x="-.12" y="-.36" height="1.7" color-interpolation-filters="sRGB">
   <feGaussianBlur stdDeviation="7.5309659"/>
  </filter>
  <radialGradient id="radialGradient5213" cx="142" cy="313" r="63" gradientTransform="matrix(.087 -.9 2.9 .28 -721 508)" gradientUnits="userSpaceOnUse">
   <stop stop-color="#09f" offset="0"/>
   <stop stop-color="#09f" stop-opacity="0" offset="1"/>
  </radialGradient>
  <filter id="filter5215" x="-.082" y="-.028" height="1.1" color-interpolation-filters="sRGB">
   <feGaussianBlur stdDeviation="4.2858814"/>
  </filter>
 </defs>
 <g transform="translate(-110 -89)">
  <ellipse transform="matrix(.81 0 0 .72 86 140)" cx="131" cy="433" rx="82" ry="26" fill="#336" filter="url(#filter5201)" opacity=".15" stroke="#fff" stroke-linecap="round" stroke-width="1.8"/>
  <path d="m171 99 44 1.1-0.46 3.2 3.2 1.2-2.7 2.5-0.46 0.92 3 0.91-2.5 3-0.46 7.1 2.7 1.1 0.45 3.2 1.4 1.6c0.058-0.012 0.11-0.02 0.17-0.032l1.8 12c-0.74 0.04-1.5 0.067-2.2 0.1v11h-2c23 19 37 45 38 78 0 12-2.3 22-6.4 30v123l2.2-0.055s1.3 13 1.8 19c0.75 9.5 2.8 19 1.8 29-1.2 12-9.1 34-9.1 34l-17 2.8-11-7.4-2.7 8.3-8.2 3.7-27-0.054-11-13-11 12-17-3.7s-5.6-23-8.1-36c-2-10-2.3-23-0.48-33 0.75-4.3 5.5-12 5.5-12l38-0.92h-38v-124c-4.1-8.4-6.4-19-6.4-30 1.6-40 12-55 37-80v-10c-1-0.081-2.1-0.16-3.1-0.25l4.3-11-0.66-0.89-0.46-2.8 3.2-2.3v-4.1l-2.1-1.8 2.1-1.8 0.23-0.92-3-2.8 3.2-2.3v-1.1l-1.1-0.69 1.4-0.92 0.45-3.2z" fill="url(#radialGradient5165)" opacity=".69" stroke="#89c5ff" stroke-linecap="round" stroke-width=".45"/>
  <path d="m209 99-40 1.1 0.46 3.2-3.2 1.1 2.7 2.5 0.46 0.91-3 0.91 2.5 3 0.46 7.1-2.7 1.1-0.45 3.2-1.4 1.6c-0.058-0.012-0.11-0.02-0.17-0.031l-1.8 12c0.74 0.039 1.5 0.067 2.2 0.1v11h2c-23 19-37 45-38 77 0 11 2.3 22 6.4 30v122l-2.2-0.055s-1.3 13-1.8 19c-0.75 9.4-2.8 19-1.8 28 1.2 12 9.1 34 9.1 34l17 2.7 11-7.3 2.7 8.2 8.2 3.6 16 0.91 9.1-14 18 11 17-3.7s9.3-25 12-37c2-10 4.5-21 2.7-31-0.75-4.3-5.5-12-5.5-12l-38-0.91h38v-123c4.1-8.4 6.4-19 6.4-30-1.6-40-16-55-41-79v-10c1-0.08 2.1-0.16 3.1-0.25l-4.3-11 0.66-0.88 0.46-2.7-3.2-2.3v-4.1l2.1-1.8-2.1-1.8-0.23-0.91 3-2.7-3.2-2.3v-1.1l1.1-0.69-1.4-0.91-0.45-3.2z" fill="url(#linearGradient4694)" stroke-width="0"/>
  <path d="m175 99 40 1.1-0.46 3.2 3.2 1.1-2.7 2.5-0.46 0.91 3 0.91-2.5 3-0.46 7.1 2.7 1.1 0.45 3.2 1.4 1.6c0.058-0.012 0.11-0.02 0.17-0.031l1.8 12c-0.74 0.039-1.5 0.067-2.2 0.1v11h-2c23 19 37 45 38 77 0 11-2.3 22-6.4 30v122l2.2-0.055s1.3 13 1.8 19c0.75 9.4 2.8 19 1.8 28-1.2 12-9.1 34-9.1 34l-17 2.7-11-7.3-2.7 8.2-8.2 3.6-16 0.91-9.1-14-18 11-17-3.7s-9.3-25-12-37c-2-10-4.5-21-2.7-31 0.75-4.3 5.5-12 5.5-12l38-0.91h-38v-123c-4.1-8.4-6.4-19-6.4-30 1.6-40 16-55 41-79v-10c-1-0.08-2.1-0.16-3.1-0.25l4.3-11-0.66-0.88-0.46-2.7 3.2-2.3v-4.1l-2.1-1.8 2.1-1.8 0.23-0.91-3-2.7 3.2-2.3v-1.1l-1.1-0.69 1.4-0.91 0.45-3.2z" fill="url(#radialGradient4700)" stroke="#89c5ff" stroke-linecap="round" stroke-width=".45"/>
  <path d="m131 382s-4.7 7.6-5.5 12c-1.8 10 0.7 21 2.7 31 2.6 13 12 37 12 37l17 3.7 18-11 9.1 14 16-0.91 8.2-3.7 2.7-8.2 11 7.3 17-2.7s8-22 9.1-34c0.94-9.4-1.1-19-1.8-28-0.51-6.4-1.8-19-1.8-19z" fill="url(#radialGradient4702)" stroke-width="0"/>
  <path d="m175 99 40 1.1-0.46 3.2 3.2 1.1-2.7 2.5-0.46 0.91 3 0.91-2.5 3-0.46 7.1 2.7 1.1 0.45 3.2 1.4 1.6c0.058-0.012 0.11-0.02 0.17-0.031l1.8 12c-0.74 0.039-1.5 0.067-2.2 0.1v11h-2c23 19 37 45 38 77 0 11-2.3 22-6.4 30v122l2.2-0.055s1.3 13 1.8 19c0.75 9.4 2.8 19 1.8 28-1.2 12-9.1 34-9.1 34l-17 2.7-11-7.3-2.7 8.2-8.2 3.6-16 0.91-9.1-14-18 11-17-3.7s-9.3-25-12-37c-2-10-4.5-21-2.7-31 0.75-4.3 5.5-12 5.5-12l38-0.91h-38v-123c-4.1-8.4-6.4-19-6.4-30 1.6-40 16-55 41-79v-10c-1-0.08-2.1-0.16-3.1-0.25l4.3-11-0.66-0.88-0.46-2.7 3.2-2.3v-4.1l-2.1-1.8 2.1-1.8 0.23-0.91-3-2.7 3.2-2.3v-1.1l-1.1-0.69 1.4-0.91 0.45-3.2z" fill="url(#radialGradient4712)" stroke-width="0"/>
  <g fill="#fff" fill-rule="evenodd">
   <path transform="matrix(.25 0 0 .25 349 222)" d="m-826 82 9.9 1.4c3.7-30 13-59 27-86 13-26 30-50 48-74 1e-5 -2e-6 1e-5 -5e-6 1e-5 -7e-6 18-24 38-47 56-72h1e-5c19-25 36-51 49-79-14 28-32 53-51 77 0 1e-5 0 1e-5 -1e-5 2e-5 -19 24-39 46-58 70 0 5e-6 0 9e-6 -1e-5 1.4e-5 -19 23-37 47-51 74-15 27-26 57-30 88z" filter="url(#filter4762)"/>
   <path transform="matrix(.25 0 0 .25 349 222)" d="m-712 71 9.7 2.3c3.7-17 8.7-34 15-50 5.7-14 12-28 20-41v-8e-6c14-24 32-47 50-69 0-5e-6 1e-5 -9e-6 1e-5 -1.4e-5 18-22 37-44 53-68 18-27 33-57 43-88-11 31-26 60-45 86-17 23-36 45-54 66 0 5e-6 -1e-5 9e-6 -1e-5 1.4e-5 -19 22-37 44-53 68-8.3 13-16 27-22 42-7 16-13 33-17 51z" filter="url(#filter4758)"/>
   <path transform="matrix(.25 0 0 .25 349 222)" d="m-614 92 9.8 1.7c2.8-17 7.2-34 14-50 5.6-14 13-28 21-41v-7.7e-6c15-24 34-45 53-67 9-11 18-21 26-33 0-2e-6 1e-5 -5e-6 1e-5 -7e-6 8.3-12 16-24 22-37 6.7-14 12-29 15-44 3.9-18 5.3-36 5.1-54-0.25 18-2.2 36-6.5 54-3.6 15-9 29-16 43-6.4 13-14 24-23 36-1e-5 5e-6 -1e-5 1e-5 -2e-5 1.5e-5 -8.4 11-17 22-27 32-19 21-39 42-55 66-1e-5 5.2e-6 -1e-5 1e-5 -1e-5 1.6e-5 -8.8 13-16 27-23 42-7 17-12 34-15 52z" filter="url(#filter4754)"/>
   <path transform="matrix(.25 0 0 .25 349 222)" d="m-842 124-0.12 10 423 0.16z" filter="url(#filter4750)"/>
   <path transform="matrix(.25 0 0 .25 349 222)" d="m-842 630v10l413-5z" filter="url(#filter4746)"/>
   <path d="m154 239 2.5 0.34c0.82-6.7 3-13 6-19 3-5.9 6.8-11 11-17 4.1-5.4 8.5-11 13-16 4.2-5.6 8.1-11 11-18-3.2 6.2-7.3 12-12 17 0 1e-5 -1e-5 1e-5 -1e-5 1e-5 -4.2 5.3-8.7 10-13 16h-1e-5c-4.2 5.2-8.3 11-12 17-3.4 6.2-5.8 13-6.9 20z" opacity=".71"/>
   <path d="m179 236 2.4 0.57c0.83-3.8 1.9-7.5 3.4-11 1.3-3.2 2.8-6.3 4.5-9.3 3.2-5.5 7.2-11 11-16h1e-5c4.1-5 8.3-9.9 12-15 4.1-6.1 7.3-13 9.6-20-2.4 6.9-5.9 13-10 19-3.7 5.2-8 10-12 15v1e-5c-4.2 4.9-8.4 9.8-12 15h-1e-5c-1.9 3-3.5 6.2-5 9.4-1.6 3.7-2.9 7.5-3.8 11z" opacity=".71"/>
   <path d="m201 241 2.5 0.43c0.62-3.9 1.6-7.6 3-11 1.2-3.2 2.8-6.3 4.7-9.2 3.4-5.4 7.6-10 12-15 2-2.4 4-4.8 5.9-7.4 1.9-2.6 3.6-5.4 4.9-8.3 1.5-3.2 2.6-6.5 3.4-9.9 0.86-4 1.2-8.1 1.1-12-0.061 4.1-0.51 8.2-1.5 12-0.82 3.4-2 6.6-3.6 9.7-1.4 2.8-3.2 5.5-5.1 8h-1e-5c-1.9 2.5-3.9 4.8-6 7.2-4.3 4.8-8.7 9.5-12 15-2 2.9-3.7 6.1-5.1 9.4-1.6 3.7-2.7 7.7-3.5 12z" opacity=".71"/>
   <path d="m138 253-0.03 2.5 106 0.041z" opacity=".71"/>
   <path d="m138 380v2.5l103-1.2z" opacity=".71"/>
  </g>
  <g fill="#deffff" fill-rule="evenodd">
   <path transform="matrix(.25 0 0 .25 349 222)" d="m-718-351-0.19 10c31-0.27 62-0.89 94-2.4 29-1.4 58-3.4 87-7.8-29 2.8-58 3.1-87 2.9-31-0.23-62-1.3-93-2.8z" filter="url(#filter4808)" opacity=".78"/>
   <path transform="matrix(.25 0 0 .25 349 222)" d="m-707-403-1.1 9.9c28 2.1 55-0.23 82-5.4 25-4.7 48-11 73-15-25 2.3-49 7.2-74 10-27 3.4-54 3.9-81 0.18z" filter="url(#filter4804)" opacity=".78"/>
   <path transform="matrix(.25 0 0 .25 349 222)" d="m-681-444-1.6 9.9c13 1.6 26 1.8 39 1.4 14-0.46 27-1.7 40-3.4 12-1.6 25-3.7 37-6.2 9.8-2 20-4.3 29-7-9.7 2.1-20 3.7-29 5-12 1.7-25 2.9-37 3.6h-1e-5c-13 0.82-27 1.1-40 0.66h-1e-5c-13-0.44-25-1.5-37-3.9z" filter="url(#filter4800)" opacity=".78"/>
   <path d="m144 458 1.9-1.6c-1.7-1.9-2.8-4.2-3.5-6.7-0.77-2.7-1-5.6-0.94-8.4 0.091-3 0.56-5.9 1.4-8.8 0.76-2.8 1.8-5.5 3.2-8v-1e-5c1.2-2.2 2.7-4.3 4.6-5.9 0.8-0.7 1.7-1.3 2.6-1.8 0.86-0.43 1.8-0.74 2.7-0.86 0.93-0.13 1.9-0.072 2.8 0.15 0 0 1e-5 0 1e-5 1e-5 1 0.25 2 0.72 3 1.3 2.6 1.6 4.5 4.2 6.2 6.9v1e-5c0.45 3.2 0.93 6.3 1.5 9.5 0.39 2 0.82 4 1.3 6 0.49 1.9 1 3.9 1.7 5.7 0.58 1.6 1.2 3.2 2.2 4.7 0.37 0.6 0.79 1.2 1.3 1.7 0.42 0.45 0.91 0.86 1.5 1.2 0.52 0.27 1.1 0.43 1.7 0.43h1e-5c0.66-0.011 1.3-0.2 1.8-0.49 0.71-0.37 1.3-0.87 1.8-1.4 0.73-0.79 1.4-1.7 1.9-2.5-0.24-2.7-0.12-5.5 0.5-8.1v-1e-5c0.52-2.2 1.4-4.3 2.7-6.2 2.3-3.3 5.8-5.8 9.8-6.7 4-0.92 8.3-0.28 12 1.7 2 1.1 3.8 2.6 5.2 4.4 1.7 2.1 3 4.4 4 7 2.3 3.1 4.5 6.4 6.7 9.6 2.2 3.2 4.6 6.3 7.2 9.2-2.6-2.9-4.9-6.1-7.1-9.3-2.2-3.2-4.3-6.5-6.6-9.7-0.94-2.5-2.2-5-4-7.1l-1e-5 -1e-5c-1.5-1.8-3.3-3.4-5.3-4.6-3.7-2.1-8.1-2.8-12-1.9-4.1 0.91-7.9 3.4-10 6.9-1.4 1.9-2.3 4.2-2.9 6.5v1e-5c-0.66 2.6-0.8 5.4-0.55 8.1-0.53 0.73-1.1 1.4-1.7 2-0.49 0.47-1 0.9-1.6 1.2-0.43 0.21-0.88 0.35-1.3 0.34-0.4 2e-3 -0.8-0.12-1.2-0.31-0.42-0.22-0.8-0.56-1.2-0.94-0.42-0.46-0.79-0.98-1.1-1.5-0.83-1.4-1.4-2.9-2-4.5-0.64-1.8-1.1-3.7-1.6-5.6v-1e-5c-0.47-2-0.87-3.9-1.2-5.9-0.58-3.2-1.1-6.5-1.5-9.7v-1e-5c-1.7-2.9-3.8-5.8-6.7-7.8-1.1-0.71-2.2-1.3-3.5-1.6h-1e-5c-1.1-0.29-2.3-0.38-3.5-0.24-1.2 0.14-2.3 0.49-3.3 0.99-1.1 0.54-2.1 1.2-3 2-2.1 1.8-3.7 4-5.1 6.3v1e-5c-1.5 2.6-2.7 5.5-3.5 8.4 0 0-1e-5 0-1e-5 1e-5 -0.87 3-1.4 6.2-1.6 9.3-0.14 3 0.1 6.1 0.9 9.1 0.74 2.8 2 5.5 4 7.8z" opacity=".14"/>
   <path d="m240 456 1.8 1.8c2.2-2.2 3.7-4.9 4.6-7.8 0.93-3 1.2-6.1 1.1-9.2-0.32-6.3-2.4-13-5.9-18h-1e-5c-1.6-2.4-3.5-4.6-5.9-6.3-1.1-0.79-2.2-1.5-3.5-2-1.2-0.5-2.5-0.84-3.8-0.97-1.3-0.14-2.7-0.055-4 0.23h-1e-5c-1.4 0.32-2.8 0.87-4 1.6-1e-5 0-1e-5 0-1e-5 1e-5 -3.2 1.9-5.8 4.8-7.8 7.8-0.52 3.3-1.1 6.5-1.8 9.7-0.42 2-0.89 4-1.4 5.9v1e-5c-0.53 1.9-1.1 3.8-1.9 5.6-0.64 1.6-1.4 3.1-2.3 4.5-0.4 0.56-0.83 1.1-1.3 1.5-0.42 0.39-0.88 0.73-1.4 0.95l-1e-5 1e-5c-0.45 0.21-0.95 0.33-1.4 0.33-0.53 6e-3 -1.1-0.13-1.6-0.35-0.66-0.28-1.3-0.71-1.8-1.2-0.74-0.57-1.4-1.3-2-2 0.3-2.7 0.14-5.5-0.62-8.1-0.68-2.4-1.8-4.6-3.4-6.5-3-3.7-7.4-6-12-6.9-4.8-0.9-9.9-0.22-14 1.9-2.3 1.1-4.4 2.7-6.2 4.6-2 2.1-3.5 4.5-4.6 7.1h-1e-5c-2.7 3.1-5.1 6.4-7.7 9.7-2.6 3.3-5.3 6.4-8.3 9.3 3-2.8 5.8-6 8.4-9.2 2.6-3.2 5.1-6.5 7.8-9.6 1.1-2.6 2.7-4.9 4.7-7 1.8-1.8 3.8-3.3 6.1-4.4 4.3-2 9.2-2.6 14-1.7 4.5 0.9 8.6 3.2 11 6.8 1.5 1.8 2.5 3.9 3.1 6.2 0.73 2.6 0.87 5.4 0.6 8.1 0.67 0.9 1.4 1.8 2.3 2.6 0.62 0.55 1.3 1 2.1 1.4 0.63 0.29 1.3 0.46 2.1 0.47 0.67 4e-3 1.3-0.14 1.9-0.41h1e-5c0.64-0.29 1.2-0.69 1.7-1.1 0.57-0.52 1.1-1.1 1.5-1.7 1.1-1.5 1.8-3.1 2.5-4.7 0.79-1.9 1.4-3.8 2-5.7v-1e-5c0.58-2 1.1-4 1.5-6 0.69-3.1 1.2-6.3 1.8-9.5v-1e-5c2-2.8 4.3-5.3 7.2-6.9 1.1-0.62 2.3-1.1 3.5-1.3 1.1-0.23 2.3-0.29 3.4-0.16 1.1 0.13 2.2 0.44 3.2 0.88 1.1 0.47 2.1 1.1 3.1 1.8 2.1 1.6 3.9 3.6 5.3 5.9 3.2 5 5.1 11 5.3 17v1e-5c0.1 2.8-0.2 5.7-1.1 8.4-0.84 2.5-2.2 4.9-4.1 6.7z" opacity=".1"/>
  </g>
  <path transform="matrix(.25 0 0 .25 332 186)" d="m-470 46c0 54-46 98-103 98-57 0-103-44-103-98 0-54 46-98 103-98 57 0 103 44 103 98z" fill="url(#linearGradient4896)" filter="url(#filter4832)" opacity=".96" stroke="#fff" stroke-linecap="round" stroke-width="1.8"/>
  <g fill-rule="evenodd">
   <path transform="matrix(.25 0 0 .25 349 222)" d="m-852 599 10 0.11 0.16-460z" fill="#0083d7" filter="url(#filter4864)" opacity=".94"/>
   <path transform="matrix(.25 0 0 .25 349 222)" d="m-423 625h10l-5-501z" fill="#0083d7" filter="url(#filter4860)" opacity=".9"/>
   <path transform="matrix(.25 0 0 .25 349 222)" d="m-743 655 10 0.11 0.16-460z" fill="#91b3ca" filter="url(#filter4864)" opacity=".94"/>
   <path transform="matrix(.25 0 0 .25 349 222)" d="m-542 661 10 0.11 0.16-460z" fill="#91b3ca" filter="url(#filter4864)" opacity=".94"/>
  </g>
  <path d="m209 99-40 1.1 0.46 3.2-3.2 1.1 2.7 2.5 0.46 0.91-3 0.91 2.5 3 0.46 7.1-2.7 1.1-0.45 3.2-1.4 1.6c-0.058-0.012-0.11-0.02-0.17-0.031l-1.8 12c0.74 0.039 1.5 0.067 2.2 0.1v11h2c-23 19-37 45-38 77 0 11 2.3 22 6.4 30v122l-2.2-0.055s-1.3 13-1.8 19c-0.75 9.4-2.8 19-1.8 28 1.2 12 9.1 34 9.1 34l17 2.7 11-7.3 2.7 8.2 8.2 3.6 16 0.91 9.1-14 18 11 17-3.7s9.3-25 12-37c2-10 4.5-21 2.7-31-0.75-4.3-5.5-12-5.5-12l-38-0.91h38v-123c4.1-8.4 6.4-19 6.4-30-1.6-40-16-55-41-79v-10c1-0.08 2.1-0.16 3.1-0.25l-4.3-11 0.66-0.88 0.46-2.7-3.2-2.3v-4.1l2.1-1.8-2.1-1.8-0.23-0.91 3-2.7-3.2-2.3v-1.1l1.1-0.69-1.4-0.91-0.45-3.2z" opacity="0" stroke-width="0"/>
  <path d="m171 99 44 1.1-0.46 3.2 3.2 1.1-2.7 2.5-0.46 0.91 3 0.91-2.5 3-0.46 7.1 2.7 1.1 0.45 3.2 1.4 1.6c0.058-0.012 0.11-0.02 0.17-0.031l1.8 12c-0.74 0.039-1.5 0.067-2.2 0.1v11h-2c23 19 37 45 38 77 0 11-2.3 22-6.4 30v122l2.2-0.055s1.3 13 1.8 19c0.75 9.4 2.8 19 1.8 28-1.2 12-9.1 34-9.1 34l-17 2.7-11-7.3-2.7 8.2-8.2 3.6-27-0.054-11-13-11 12-17-3.7s-5.6-23-8.1-35c-2-10-2.3-23-0.48-33 0.75-4.3 5.5-12 5.5-12l38-0.91h-38v-123c-4.1-8.4-6.4-19-6.4-30 1.6-40 12-55 37-79v-10c-1-0.08-2.1-0.16-3.1-0.25l4.3-11-0.66-0.88-0.46-2.7 3.2-2.3v-4.1l-2.1-1.8 2.1-1.8 0.23-0.91-3-2.7 3.2-2.3v-1.1l-1.1-0.69 1.4-0.91 0.45-3.2z" fill="url(#radialGradient4700)" stroke="#89c5ff" stroke-linecap="round" stroke-width=".45"/>
  <path d="m169 99 46 1.1-0.46 3.2 3.2 1.1-2.7 2.5-0.46 0.91 3 0.91-2.5 3-0.46 7.1 2.7 1.1 0.45 3.2 1.4 1.6c0.058-0.012 0.11-0.02 0.17-0.031l1.8 12c-0.74 0.039-1.5 0.067-2.2 0.1v11h-2c23 19 37 45 38 77 0 11-2.3 22-6.4 30v122l2.2-0.055s1.3 13 1.8 19c0.75 9.4 2.8 19 1.8 28-1.2 12-9.1 34-9.1 34l-17 2.7-11-7.3-2.7 8.2-8.2 3.6-16 0.91-9.1-14-18 11-17-3.7s-9.3-25-12-37c-2-10-4.5-21-2.7-31 0.75-4.3 5.5-12 5.5-12l38-0.91h-38v-123c-4.1-8.4-6.4-19-6.4-30 1.6-40 10-55 35-79v-10c-1-0.08-2.1-0.16-3.1-0.25l4.3-11-0.66-0.88-0.46-2.7 3.2-2.3v-4.1l-2.1-1.8 2.1-1.8 0.23-0.91-3-2.7 3.2-2.3v-1.1l-1.1-0.69 1.4-0.91 0.45-3.2z" fill="url(#radialGradient4712)" opacity=".76" stroke-width="0"/>
  <g fill="#fff" fill-rule="evenodd">
   <path transform="matrix(.25 0 0 .25 349 222)" d="m-826 82 9.9 1.4c3.7-30 13-59 27-86 13-26 30-50 48-74 1e-5 -2e-6 1e-5 -5e-6 1e-5 -7e-6 18-24 38-47 56-72h1e-5c19-25 36-51 49-79-14 28-32 53-51 77 0 1e-5 0 1e-5 -1e-5 2e-5 -19 24-39 46-58 70 0 5e-6 0 9e-6 -1e-5 1.4e-5 -19 23-37 47-51 74-15 27-26 57-30 88z" filter="url(#filter4762)"/>
   <path transform="matrix(.25 0 0 .25 349 222)" d="m-712 71 9.7 2.3c3.7-17 8.7-34 15-50 5.7-14 12-28 20-41v-8e-6c14-24 32-47 50-69 0-5e-6 1e-5 -9e-6 1e-5 -1.4e-5 18-22 37-44 53-68 18-27 33-57 43-88-11 31-26 60-45 86-17 23-36 45-54 66 0 5e-6 -1e-5 9e-6 -1e-5 1.4e-5 -19 22-37 44-53 68-8.3 13-16 27-22 42-7 16-13 33-17 51z" filter="url(#filter4758)"/>
   <path transform="matrix(.25 0 0 .25 349 222)" d="m-614 92 9.8 1.7c2.8-17 7.2-34 14-50 5.6-14 13-28 21-41v-7.7e-6c15-24 34-45 53-67 9-11 18-21 26-33 0-2e-6 1e-5 -5e-6 1e-5 -7e-6 8.3-12 16-24 22-37 6.7-14 12-29 15-44 3.9-18 5.3-36 5.1-54-0.25 18-2.2 36-6.5 54-3.6 15-9 29-16 43-6.4 13-14 24-23 36-1e-5 5e-6 -1e-5 1e-5 -2e-5 1.5e-5 -8.4 11-17 22-27 32-19 21-39 42-55 66-1e-5 5.2e-6 -1e-5 1e-5 -1e-5 1.6e-5 -8.8 13-16 27-23 42-7 17-12 34-15 52z" filter="url(#filter4754)"/>
   <path transform="matrix(.25 0 0 .25 349 222)" d="m-842 124-0.12 10 423 0.16z" filter="url(#filter4750)"/>
   <path transform="matrix(.25 0 0 .25 349 222)" d="m-842 630v10l413-5z" filter="url(#filter4746)"/>
   <path d="m154 239 2.5 0.34c0.82-6.7 3-13 6-19 3-5.9 6.8-11 11-17 4.1-5.4 8.5-11 13-16 4.2-5.6 8.1-11 11-18-3.2 6.2-7.3 12-12 17 0 1e-5 -1e-5 1e-5 -1e-5 1e-5 -4.2 5.3-8.7 10-13 16h-1e-5c-4.2 5.2-8.3 11-12 17-3.4 6.2-5.8 13-6.9 20z" opacity=".71"/>
   <path d="m179 236 2.4 0.57c0.83-3.8 1.9-7.5 3.4-11 1.3-3.2 2.8-6.3 4.5-9.3 3.2-5.5 7.2-11 11-16h1e-5c4.1-5 8.3-9.9 12-15 4.1-6.1 7.3-13 9.6-20-2.4 6.9-5.9 13-10 19-3.7 5.2-8 10-12 15v1e-5c-4.2 4.9-8.4 9.8-12 15h-1e-5c-1.9 3-3.5 6.2-5 9.4-1.6 3.7-2.9 7.5-3.8 11z" opacity=".71"/>
   <path d="m201 241 2.5 0.43c0.62-3.9 1.6-7.6 3-11 1.2-3.2 2.8-6.3 4.7-9.2 3.4-5.4 7.6-10 12-15 2-2.4 4-4.8 5.9-7.4 1.9-2.6 3.6-5.4 4.9-8.3 1.5-3.2 2.6-6.5 3.4-9.9 0.86-4 1.2-8.1 1.1-12-0.061 4.1-0.51 8.2-1.5 12-0.82 3.4-2 6.6-3.6 9.7-1.4 2.8-3.2 5.5-5.1 8h-1e-5c-1.9 2.5-3.9 4.8-6 7.2-4.3 4.8-8.7 9.5-12 15-2 2.9-3.7 6.1-5.1 9.4-1.6 3.7-2.7 7.7-3.5 12z" opacity=".71"/>
   <path d="m138 253-0.03 2.5 106 0.041z" opacity=".71"/>
   <path d="m138 380v2.5l103-1.2z" opacity=".71"/>
  </g>
  <g fill="#deffff" fill-rule="evenodd">
   <path transform="matrix(.25 0 0 .25 349 222)" d="m-718-351-0.19 10c31-0.27 62-0.89 94-2.4 29-1.4 58-3.4 87-7.8-29 2.8-58 3.1-87 2.9-31-0.23-62-1.3-93-2.8z" filter="url(#filter4808)" opacity=".78"/>
   <path transform="matrix(.25 0 0 .25 349 222)" d="m-707-403-1.1 9.9c28 2.1 55-0.23 82-5.4 25-4.7 48-11 73-15-25 2.3-49 7.2-74 10-27 3.4-54 3.9-81 0.18z" filter="url(#filter4804)" opacity=".78"/>
   <path transform="matrix(.25 0 0 .25 349 222)" d="m-681-444-1.6 9.9c13 1.6 26 1.8 39 1.4 14-0.46 27-1.7 40-3.4 12-1.6 25-3.7 37-6.2 9.8-2 20-4.3 29-7-9.7 2.1-20 3.7-29 5-12 1.7-25 2.9-37 3.6h-1e-5c-13 0.82-27 1.1-40 0.66h-1e-5c-13-0.44-25-1.5-37-3.9z" filter="url(#filter4800)" opacity=".78"/>
   <path d="m144 458 1.9-1.6c-1.7-1.9-2.8-4.2-3.5-6.7-0.77-2.7-1-5.6-0.94-8.4 0.091-3 0.56-5.9 1.4-8.8 0.76-2.8 1.8-5.5 3.2-8v-1e-5c1.2-2.2 2.7-4.3 4.6-5.9 0.8-0.7 1.7-1.3 2.6-1.8 0.86-0.43 1.8-0.74 2.7-0.86 0.93-0.13 1.9-0.072 2.8 0.15 0 0 1e-5 0 1e-5 1e-5 1 0.25 2 0.72 3 1.3 2.6 1.6 4.5 4.2 6.2 6.9v1e-5c0.45 3.2 0.93 6.3 1.5 9.5 0.39 2 0.82 4 1.3 6 0.49 1.9 1 3.9 1.7 5.7 0.58 1.6 1.2 3.2 2.2 4.7 0.37 0.6 0.79 1.2 1.3 1.7 0.42 0.45 0.91 0.86 1.5 1.2 0.52 0.27 1.1 0.43 1.7 0.43h1e-5c0.66-0.011 1.3-0.2 1.8-0.49 0.71-0.37 1.3-0.87 1.8-1.4 0.73-0.79 1.4-1.7 1.9-2.5-0.24-2.7-0.12-5.5 0.5-8.1v-1e-5c0.52-2.2 1.4-4.3 2.7-6.2 2.3-3.3 5.8-5.8 9.8-6.7 4-0.92 8.3-0.28 12 1.7 2 1.1 3.8 2.6 5.2 4.4 1.7 2.1 3 4.4 4 7 2.3 3.1 4.5 6.4 6.7 9.6 2.2 3.2 4.6 6.3 7.2 9.2-2.6-2.9-4.9-6.1-7.1-9.3-2.2-3.2-4.3-6.5-6.6-9.7-0.94-2.5-2.2-5-4-7.1l-1e-5 -1e-5c-1.5-1.8-3.3-3.4-5.3-4.6-3.7-2.1-8.1-2.8-12-1.9-4.1 0.91-7.9 3.4-10 6.9-1.4 1.9-2.3 4.2-2.9 6.5v1e-5c-0.66 2.6-0.8 5.4-0.55 8.1-0.53 0.73-1.1 1.4-1.7 2-0.49 0.47-1 0.9-1.6 1.2-0.43 0.21-0.88 0.35-1.3 0.34-0.4 2e-3 -0.8-0.12-1.2-0.31-0.42-0.22-0.8-0.56-1.2-0.94-0.42-0.46-0.79-0.98-1.1-1.5-0.83-1.4-1.4-2.9-2-4.5-0.64-1.8-1.1-3.7-1.6-5.6v-1e-5c-0.47-2-0.87-3.9-1.2-5.9-0.58-3.2-1.1-6.5-1.5-9.7v-1e-5c-1.7-2.9-3.8-5.8-6.7-7.8-1.1-0.71-2.2-1.3-3.5-1.6h-1e-5c-1.1-0.29-2.3-0.38-3.5-0.24-1.2 0.14-2.3 0.49-3.3 0.99-1.1 0.54-2.1 1.2-3 2-2.1 1.8-3.7 4-5.1 6.3v1e-5c-1.5 2.6-2.7 5.5-3.5 8.4 0 0-1e-5 0-1e-5 1e-5 -0.87 3-1.4 6.2-1.6 9.3-0.14 3 0.1 6.1 0.9 9.1 0.74 2.8 2 5.5 4 7.8z" opacity=".14"/>
   <path d="m237 458 1.8 1.8c2.2-2.2 3.7-4.9 4.6-7.8 0.93-3 1.2-6.1 1.1-9.2-0.32-6.3-2.4-13-5.9-18h-1e-5c-1.6-2.4-3.5-4.6-5.9-6.3-1.1-0.79-2.2-1.5-3.5-2-1.2-0.5-2.5-0.84-3.8-0.97-1.3-0.14-2.7-0.055-4 0.23h-1e-5c-1.4 0.32-2.8 0.87-4 1.6-1e-5 0-1e-5 0-1e-5 1e-5 -3.2 1.9-5.8 4.8-7.8 7.8-0.52 3.3-1.1 6.5-1.8 9.7-0.42 2-0.89 4-1.4 5.9v1e-5c-0.53 1.9-1.1 3.8-1.9 5.6-0.64 1.6-1.4 3.1-2.3 4.5-0.4 0.56-0.83 1.1-1.3 1.5-0.42 0.39-0.88 0.73-1.4 0.95l-1e-5 1e-5c-0.45 0.21-0.95 0.33-1.4 0.33-0.53 6e-3 -1.1-0.13-1.6-0.35-0.66-0.28-1.3-0.71-1.8-1.2-0.74-0.57-1.4-1.3-2-2 0.3-2.7 0.14-5.5-0.62-8.1-0.68-2.4-1.8-4.6-3.4-6.5-3-3.7-7.4-6-12-6.9-4.8-0.9-9.9-0.22-14 1.9-2.3 1.1-4.4 2.7-6.2 4.6-2 2.1-3.5 4.5-4.6 7.1h-1e-5c-2.7 3.1-5.1 6.4-7.7 9.7-2.6 3.3-5.3 6.4-8.3 9.3 3-2.8 5.8-6 8.4-9.2 2.6-3.2 5.1-6.5 7.8-9.6 1.1-2.6 2.7-4.9 4.7-7 1.8-1.8 3.8-3.3 6.1-4.4 4.3-2 9.2-2.6 14-1.7 4.5 0.9 8.6 3.2 11 6.8 1.5 1.8 2.5 3.9 3.1 6.2 0.73 2.6 0.87 5.4 0.6 8.1 0.67 0.9 1.4 1.8 2.3 2.6 0.62 0.55 1.3 1 2.1 1.4 0.63 0.29 1.3 0.46 2.1 0.47 0.67 4e-3 1.3-0.14 1.9-0.41h1e-5c0.64-0.29 1.2-0.69 1.7-1.1 0.57-0.52 1.1-1.1 1.5-1.7 1.1-1.5 1.8-3.1 2.5-4.7 0.79-1.9 1.4-3.8 2-5.7v-1e-5c0.58-2 1.1-4 1.5-6 0.69-3.1 1.2-6.3 1.8-9.5v-1e-5c2-2.8 4.3-5.3 7.2-6.9 1.1-0.62 2.3-1.1 3.5-1.3 1.1-0.23 2.3-0.29 3.4-0.16 1.1 0.13 2.2 0.44 3.2 0.88 1.1 0.47 2.1 1.1 3.1 1.8 2.1 1.6 3.9 3.6 5.3 5.9 3.2 5 5.1 11 5.3 17v1e-5c0.1 2.8-0.2 5.7-1.1 8.4-0.84 2.5-2.2 4.9-4.1 6.7z" opacity=".1"/>
  </g>
  <path transform="matrix(.25 0 0 .25 332 186)" d="m-470 46c0 54-46 98-103 98-57 0-103-44-103-98 0-54 46-98 103-98 57 0 103 44 103 98z" fill="url(#linearGradient4896)" filter="url(#filter4832)" opacity=".96" stroke="#fff" stroke-linecap="round" stroke-width="1.8"/>
  <g fill-rule="evenodd">
   <path transform="matrix(-.17 0 0 .25 -1.6 222)" d="m-852 599 10 0.11 0.16-460z" fill="#0083d7" filter="url(#filter5175)" opacity=".42"/>
   <path transform="matrix(.25 0 0 .25 349 223)" d="m-423 625h10l-5-501z" fill="#0083d7" filter="url(#filter5171)" opacity=".4"/>
   <path transform="matrix(.25 0 0 .25 349 222)" d="m-743 655 10 0.11 0.16-460z" fill="#91b3ca" filter="url(#filter4864)" opacity=".94"/>
   <path transform="matrix(.25 0 0 .25 349 222)" d="m-542 661 10 0.11 0.16-460z" fill="#91b3ca" filter="url(#filter4864)" opacity=".94"/>
  </g>
  <path d="m169 99 46 1.1-0.46 3.2 3.2 1.1-2.7 2.5-0.46 0.91 3 0.91-2.5 3-0.46 7.1 2.7 1.1 0.45 3.2 1.4 1.6c0.058-0.012 0.11-0.02 0.17-0.031l1.8 12c-0.74 0.039-1.5 0.067-2.2 0.1v11h-2c23 19 37 45 38 77 0 11-2.3 22-6.4 30v122l2.2-0.055s1.3 13 1.8 19c0.75 9.4 2.8 19 1.8 28-1.2 12-9.1 34-9.1 34l-17 2.7-11-7.3-2.7 8.2-8.2 3.6-16 0.91-9.1-14-18 11-17-3.7s-9.3-25-12-37c-2-10-4.5-21-2.7-31 0.75-4.3 5.5-12 5.5-12l38-0.91h-38v-123c-4.1-8.4-6.4-19-6.4-30 1.6-40 10-55 35-79v-10c-1-0.08-2.1-0.16-3.1-0.25l4.3-11-0.66-0.88-0.46-2.7 3.2-2.3v-4.1l-2.1-1.8 2.1-1.8 0.23-0.91-3-2.7 3.2-2.3v-1.1l-1.1-0.69 1.4-0.91 0.45-3.2z" fill="url(#radialGradient5213)" filter="url(#filter5215)" opacity=".49" stroke-width="0"/>
 </g>
</svg>
