<?xml version="1.0"?>
<svg xmlns:rdf="http://www.w3.org/1999/02/22-rdf-syntax-ns#" xmlns="http://www.w3.org/2000/svg" xmlns:cc="http://creativecommons.org/ns#" xmlns:xlink="http://www.w3.org/1999/xlink" xmlns:dc="http://purl.org/dc/elements/1.1/" xmlns:svg="http://www.w3.org/2000/svg" id="svg5001" viewBox="0 0 121.33 496.26" version="1.0">
  <defs id="defs5003">
    <linearGradient id="linearGradient4310" x1="800.21" spreadMethod="reflect" gradientUnits="userSpaceOnUse" y1="618.82" gradientTransform="matrix(.60773 0 0 .60773 -357.23 24.609)" x2="975.83" y2="618.82">
      <stop id="stop4564" stop-color="#4e9a06" offset="0"/>
      <stop id="stop4566" stop-color="#fbfdfc" stop-opacity=".87417" offset=".74114"/>
      <stop id="stop4568" stop-color="#4e9a06" offset="1"/>
    </linearGradient>
    <linearGradient id="linearGradient4604" x1="800.44" gradientUnits="userSpaceOnUse" y1="857.91" gradientTransform="matrix(.60773 0 0 .60773 -358.44 33.621)" x2="957.42" y2="857.91">
      <stop id="stop4319" stop-color="#4e9a06" offset="0"/>
      <stop id="stop4321" stop-color="#4e9a06" stop-opacity="0" offset="1"/>
    </linearGradient>
    <filter id="filter4558" y="-.33333" width="1.6667" x="-.33333" height="1.6667">
      <feGaussianBlur id="feGaussianBlur4560" stdDeviation="2.4552319"/>
    </filter>
    <linearGradient id="linearGradient4366" x1="878.81" gradientUnits="userSpaceOnUse" y1="918.56" gradientTransform="matrix(.60773 0 0 .60773 -358.44 23.393)" x2="878.81" y2="894.47">
      <stop id="stop4362" offset="0"/>
      <stop id="stop4364" stop-opacity="0" offset="1"/>
    </linearGradient>
    <radialGradient id="radialGradient4658" gradientUnits="userSpaceOnUse" cy="378.66" cx="912.77" gradientTransform="matrix(.56797 -.21622 .11505 .30221 -363.58 331.5)" r="97.006">
      <stop id="stop4654" stop-color="#eeeeec" offset="0"/>
      <stop id="stop4656" stop-color="#eeeeec" stop-opacity="0" offset="1"/>
    </radialGradient>
    <linearGradient id="linearGradient4774" x1="878.44" gradientUnits="userSpaceOnUse" y1="189.72" gradientTransform="matrix(.60773 0 0 .60773 -357.23 24.609)" x2="959.44" y2="351.72">
      <stop id="stop4770" stop-color="#62a523" offset="0"/>
      <stop id="stop4772" stop-color="#62a523" stop-opacity="0" offset="1"/>
    </linearGradient>
    <filter id="filter4954" y="-.16862" width="1.2569" x="-.12847" height="1.3372">
      <feGaussianBlur id="feGaussianBlur4956" stdDeviation="2.2482639"/>
    </filter>
    <linearGradient id="linearGradient4792" x1="905.54" gradientUnits="userSpaceOnUse" y1="237.83" gradientTransform="matrix(.56975 0 0 .60773 -324.35 24.001)" x2="913.54" y2="237.83">
      <stop id="stop4788" stop-color="#fff" offset="0"/>
      <stop id="stop4790" stop-color="#fff" stop-opacity="0" offset="1"/>
    </linearGradient>
    <linearGradient id="linearGradient4713" x1="874.5" gradientUnits="userSpaceOnUse" y1="130.61" gradientTransform="matrix(.58404 0 0 .60773 -336.49 23.548)" x2="875" y2="157.36">
      <stop id="stop4717" stop-color="#2d2d2d" stop-opacity=".95364" offset="0"/>
      <stop id="stop4719" stop-color="#fff" stop-opacity=".54967" offset=".23614"/>
      <stop id="stop4721" stop-color="#484847" offset="1"/>
    </linearGradient>
    <linearGradient id="linearGradient4991" x1="837" gradientUnits="userSpaceOnUse" y1="117.07" gradientTransform="matrix(.60773 0 0 .60773 -355.11 24.079)" x2="919" y2="117.07">
      <stop id="stop4995" stop-color="#4e9a06" offset="0"/>
      <stop id="stop4997" stop-color="#fbfdfc" stop-opacity=".99648" offset=".78992"/>
      <stop id="stop4999" stop-color="#4e9a06" offset="1"/>
    </linearGradient>
  </defs>
  <g id="layer1" transform="translate(-116.69 -87.205)">
    <path id="rect3781" fill="#4e9a06" d="m176.87 87.989l-18.84 0.304s-5.17 1.559-6.08 5.906c-0.64 3.065 0 6.621 0 8.071-2.13 0.75-3.65 2.78-3.65 5.17v6.68c0 2.38 1.51 4.39 3.63 5.15-0.02 32.69-0.05 84.26 0.02 97.86-31.85 17.59-33.9 44.93-34.03 48.28-0.01 0.22 0 0.34 0 0.34v298.4s1.8 14.62 24.3 18.84c3.4 0.2 8.76 0.33 15.24 0.4h0.4c4.57 0.03 9.25 0.04 13.88 0.05 2.71 0.01 5.31 0.03 8.13 0.02 0.72 0 1.41-0.02 2.12-0.02 4.63-0.01 9.31-0.02 13.89-0.05h0.4c6.47-0.07 11.83-0.2 15.23-0.4 22.51-4.22 24.31-18.84 24.31-18.84v-298.74c-0.14-3.35-2.19-30.69-34.04-48.28 0.07-13.6 0.04-65.17 0.02-97.86 2.12-0.76 3.63-2.77 3.63-5.15v-6.68c0-2.39-1.52-4.42-3.65-5.17 0-1.45 0.65-5.006 0-8.071-0.91-4.347-6.07-5.906-6.07-5.906l-18.84-0.304z"/>
    <path id="path3790" fill="url(#linearGradient4310)" d="m178.51 88.421l-18.84 0.304s-5.17 1.559-6.08 5.906c-0.64 3.065 0 6.619 0 8.069-2.13 0.75-3.65 2.78-3.65 5.17v6.68c0 2.39 1.51 4.4 3.63 5.15-0.02 32.7-0.05 84.26 0.02 97.86-0.86 0.48-1.67 0.98-2.49 1.47 0.52 0.84 1.04 1.63 1.56 2.37-1.32-0.74-2.63-1.54-3.91-2.41-28.8 17.59-30.72 43.18-30.84 46.41-0.01 0.23 0 0.35 0 0.35v298.39s1.8 14.63 24.31 18.84c3.39 0.2 8.75 0.33 15.23 0.4h0.4c4.57 0.03 9.26 0.05 13.88 0.06 2.71 0 5.31 0.02 8.13 0.02 0.72 0 1.41-0.02 2.12-0.02 4.63-0.01 9.31-0.03 13.89-0.06h0.4c6.47-0.07 11.84-0.2 15.23-0.4 22.51-4.21 24.31-18.84 24.31-18.84v-298.74c-0.13-3.27-2.1-29.43-31.89-47.04 0.08-0.13 0.16-0.25 0.25-0.38-0.25-0.14-0.5-0.28-0.74-0.42 0.06-13.6 0.04-65.16 0.01-97.86 2.12-0.75 3.63-2.76 3.63-5.15v-6.68c0-2.39-1.52-4.42-3.64-5.17-0.01-1.45 0.64-5.004 0-8.069-0.92-4.347-6.08-5.906-6.08-5.906l-18.84-0.304z"/>
    <path id="path4314" fill="url(#linearGradient4604)" d="m223.41 562.02c0 13.09-20.94 21.13-47.27 21.13s-48.13-8.04-48.13-21.13c0-13.08 22.54-37.75 48.87-37.75 26.34 0 46.53 24.67 46.53 37.75z"/>
    <path id="path4368" filter="url(#filter4558)" transform="matrix(.55911 0 0 .60773 -314.85 37.193)" fill="#eeeeec" d="m912.87 820.08a8.8388 8.8388 0 1 1 -17.67 0 8.8388 8.8388 0 1 1 17.67 0z"/>
    <path id="path4351" fill="url(#linearGradient4366)" d="m116.69 552.35v9.97s1.8 14.63 24.31 18.84c3.39 0.2 8.76 0.33 15.23 0.4h0.4c4.58 0.03 9.26 0.04 13.88 0.06 2.72 0 5.31 0.02 8.13 0.01 0.72 0 1.42-0.01 2.13-0.01 4.62-0.02 9.3-0.03 13.88-0.06h0.4c6.47-0.07 11.84-0.2 15.23-0.4 22.51-4.21 24.31-18.84 24.31-18.84v-9.97h-117.9z"/>
    <path id="path4635" fill="url(#radialGradient4658)" d="m205.39 219.25c-8.54 6.19-18.01 9.63-27.98 9.63-9.38 0-18.31-3.05-26.45-8.56-28.8 17.59-30.72 43.18-30.85 46.41v53.66c13.23 24.74 34.84 40.87 59.24 40.87 24.06 0 45.4-15.69 58.66-39.85v-54.33s0.01-0.12 0-0.35c-0.12-3.29-2.13-29.87-32.62-47.48z"/>
    <path id="path4660" fill="url(#linearGradient4774)" d="m176.99 87.205l-18.84 0.304s-5.17 1.559-6.08 5.907c-0.64 3.065 0 6.624 0 8.074-2.12 0.75-3.64 2.77-3.64 5.16v6.69c0 2.38 1.51 4.39 3.62 5.14-0.02 32.7-0.05 84.27 0.02 97.87-0.81 0.45-1.6 0.92-2.37 1.39-0.39-0.26-0.79-0.5-1.18-0.76-28.8 17.59-30.72 43.18-30.84 46.41-0.01 0.22 0 0.34 0 0.34v53.31c13.22 24.75 34.83 40.87 59.23 40.87 24.06 0 45.4-15.68 58.67-39.84v-54.34s0.01-0.12 0-0.34c-0.13-3.3-2.14-29.87-32.63-47.48-0.27 0.2-0.54 0.38-0.82 0.57-0.07-0.04-0.15-0.09-0.22-0.13 0.06-13.6 0.04-65.17 0.02-97.87 2.11-0.75 3.62-2.76 3.62-5.14v-6.69c0-2.39-1.52-4.41-3.64-5.16-0.01-1.45 0.64-5.009 0-8.074-0.92-4.348-6.08-5.907-6.08-5.907l-18.84-0.304z"/>
    <rect id="rect4776" opacity=".35211" ry="4.8619" height="94.806" width="9.116" y="121.13" x="187.02" fill="url(#linearGradient4792)"/>
    <path id="rect4980" opacity=".42958" fill="url(#linearGradient4991)" d="m158.43 86.903c0.96 2.793-1.21-0.625-1.21 4.862l-3.65 10.425c0.48-0.12 0.99-0.15 1.52-0.09 18.26 1.93 27.38 1.93 48.01 0 0.1-0.01 0.2-0.02 0.3-0.02l-1.93-9.241c0-2.693-1.1-4.862-3.79-4.862l-39.25-1.074z"/>
    <path id="path4733" opacity=".42958" d="m940 384.36a21 16 0 1 1 -42 0 21 16 0 1 1 42 0z" transform="matrix(.60773 0 0 .60773 -365.33 -10.5)" filter="url(#filter4954)" fill="#fdfffe"/>
    <path id="rect4680" opacity=".12" fill="url(#linearGradient4713)" d="m153.81 101.56c17.55 1.93 26.32 1.93 46.14 0 2.9-0.28 5.26 2.44 5.26 5.47v6.68c0 3.03-2.37 5.08-5.26 5.47-19.62 2.58-27.35 2.58-46.14 0-2.88-0.4-5.25-2.44-5.25-5.47v-6.68c0-3.03 2.36-5.79 5.25-5.47z"/>
  </g>
  <metadata>
    <rdf:RDF>
      <cc:Work>
        <dc:format>image/svg+xml</dc:format>
        <dc:type rdf:resource="http://purl.org/dc/dcmitype/StillImage"/>
        <cc:license rdf:resource="http://creativecommons.org/licenses/publicdomain/"/>
        <dc:publisher>
          <cc:Agent rdf:about="http://openclipart.org/">
            <dc:title>Openclipart</dc:title>
          </cc:Agent>
        </dc:publisher>
        <dc:title>empty green bottle</dc:title>
        <dc:date>2008-11-17T20:44:04</dc:date>
        <dc:description>bottle, bottle, clip art, clipart, drink, drink, image, media, png, public domain, svg, vine, vine, </dc:description>
        <dc:source>http://openclipart.org/detail/20230/empty-green-bottle-by-rg1024</dc:source>
        <dc:creator>
          <cc:Agent>
            <dc:title>rg1024</dc:title>
          </cc:Agent>
        </dc:creator>
        <dc:subject>
          <rdf:Bag>
            <rdf:li>bottle</rdf:li>
            <rdf:li>clip art</rdf:li>
            <rdf:li>clipart</rdf:li>
            <rdf:li>drink</rdf:li>
            <rdf:li>image</rdf:li>
            <rdf:li>media</rdf:li>
            <rdf:li>png</rdf:li>
            <rdf:li>public domain</rdf:li>
            <rdf:li>svg</rdf:li>
            <rdf:li>vine</rdf:li>
          </rdf:Bag>
        </dc:subject>
      </cc:Work>
      <cc:License rdf:about="http://creativecommons.org/licenses/publicdomain/">
        <cc:permits rdf:resource="http://creativecommons.org/ns#Reproduction"/>
        <cc:permits rdf:resource="http://creativecommons.org/ns#Distribution"/>
        <cc:permits rdf:resource="http://creativecommons.org/ns#DerivativeWorks"/>
      </cc:License>
    </rdf:RDF>
  </metadata>
</svg>
